<?xml version="1.0" standalone="no"?>
<!DOCTYPE svg PUBLIC "-//W3C//DTD SVG 20010904//EN"
 "http://www.w3.org/TR/2001/REC-SVG-20010904/DTD/svg10.dtd">
<svg version="1.0" xmlns="http://www.w3.org/2000/svg"
 width="320.000000pt" height="320.000000pt" viewBox="0 0 320.000000 320.000000"
 preserveAspectRatio="xMidYMid meet">
<metadata>
Created by potrace 1.11, written by Peter Selinger 2001-2013
</metadata>
<g transform="translate(0.000000,320.000000) scale(0.100000,-0.100000)"
fill="#000000" stroke="none">
<path d="M1459 3196 c-2 -3 -33 -7 -69 -10 -154 -14 -415 -101 -574 -190 -187
-106 -394 -293 -518 -466 -130 -183 -227 -411 -274 -644 -26 -132 -26 -437 1
-575 44 -229 138 -450 275 -643 83 -118 250 -284 370 -370 204 -145 494 -260
720 -286 87 -9 350 -9 425 1 526 72 995 413 1224 890 77 160 131 339 149 497
9 73 9 319 0 395 -53 463 -338 912 -735 1157 -110 68 -151 90 -260 134 -88 35
-232 76 -313 89 -25 4 -54 9 -65 12 -25 6 -351 14 -356 9z m434 -125 c288 -61
541 -193 743 -388 181 -175 312 -383 389 -617 55 -167 70 -268 69 -466 0 -187
-13 -281 -60 -438 -137 -456 -502 -831 -956 -983 -161 -54 -276 -73 -458 -73
-169 -1 -217 3 -337 28 -586 125 -1050 604 -1159 1198 -18 98 -25 357 -12 458
21 166 73 331 148 477 74 145 78 151 181 285 34 44 130 140 200 200 190 161
455 284 691 323 51 8 104 16 118 19 71 11 350 -3 443 -23z"/>
<path d="M845 2375 c-66 -32 -199 -93 -255 -117 -25 -11 -55 -25 -67 -30 l-22
-11 21 -51 c11 -28 22 -60 24 -71 2 -11 6 -31 9 -45 3 -14 8 -54 12 -90 8 -84
8 -870 -1 -935 -3 -28 -8 -64 -11 -82 -2 -18 -13 -63 -24 -100 -11 -37 -22
-72 -23 -78 -3 -11 521 -15 528 -3 2 4 -2 24 -10 45 -8 21 -20 58 -27 83 -6
25 -14 54 -17 65 -3 11 -7 252 -9 535 l-4 515 32 33 c74 75 182 109 263 82 44
-14 82 -61 92 -115 5 -22 9 -43 10 -47 1 -5 2 -277 3 -606 l1 -597 241 0 c235
0 240 0 234 20 -71 249 -76 304 -78 845 l-2 385 39 39 c52 51 128 86 189 86
97 0 146 -43 167 -145 5 -28 12 -265 14 -540 2 -269 6 -503 9 -520 6 -30 19
-126 19 -135 0 -3 4 -12 8 -20 7 -13 41 -15 218 -15 116 0 213 3 216 6 4 3 0
24 -8 46 -20 57 -54 226 -60 298 -3 33 -5 245 -6 470 -1 404 -8 517 -35 595
-35 99 -117 181 -207 210 -42 13 -131 16 -198 6 -124 -18 -297 -151 -351 -269
-15 -33 -29 -35 -29 -4 -1 34 -45 128 -80 170 -159 190 -519 122 -664 -126
-16 -26 -30 -47 -31 -45 -2 2 -5 19 -8 38 -12 86 -59 253 -70 249 -1 0 -24
-11 -52 -24z"/>
</g>
</svg>
